<svg height="512pt" viewBox="0 0 512 512.00021" width="512pt" xmlns="http://www.w3.org/2000/svg"><path d="m361.558594 232.375-28.941406 47.667969 96.269531 112.589843 83.027343-34.179687zm0 0" fill="#ae2538"/><path d="m394.621094 426.898438-112.589844-96.269532-44.230469 32.378906 122.609375 148.992188zm0 0" fill="#ae2538"/><path d="m498.285156 433-137.347656-137.691406-63.640625 63.640625 137.617187 137.347656v-63.296875zm0 0" fill="#e63950"/><path d="m362.660156 261.375-33.519531 36.914062-56.851563-58.972656-54.09375-55.792968c10.820313-8.695313 20.367188-18.667969 28.640626-29.910157l91.640624-128.554687c36.484376-36.910156 98.429688-32.242188 139.371094 8.699218 40.941406 40.941407 45.609375 102.882813 10.605469 137.886719zm0 0" fill="#fff5f5"/><path d="m329.140625 298.285156-56.851563-58.972656 205.558594-205.554688c40.9375 40.941407 45.605469 102.882813 10.605469 137.886719l-125.792969 89.730469zm0 0" fill="#efe2dd"/><path d="m262.53125 375.503906-126.21875-126.21875c4.03125-3.183594 49.640625-39.457031 52.1875-41.578125 7.421875-6.152343 29.058594-23.546875 29.695312-24.183593 15.699219 4.667968 30.757813 11.667968 44.550782 21.210937 8.910156 5.941406 16.96875 12.730469 24.183594 19.941406 20.574218 20.578125 34.789062 45.820313 42.210937 73.609375l-25.03125 28.003906c-10.394531 12.089844-39.667969 46.878907-41.578125 49.214844zm0 0" fill="#ff637b"/><path d="m262.53125 375.503906-63.214844-63.214844 87.613282-87.613281c20.574218 20.578125 34.789062 45.824219 42.210937 73.609375l-25.03125 28.003906c-10.394531 12.089844-39.667969 46.878907-41.578125 49.214844zm0 0" fill="#e63950"/><path d="m173.226562 486.871094-148.492187-148.492188 111.578125-89.09375c35.214844 2.542969 64.914062 17.816406 85.277344 37.335938l1.695312 1.695312c20.367188 20.789063 36.703125 50.699219 39.246094 87.1875zm0 0" fill="#fff5f5"/><path d="m173.226562 486.871094-74.246093-74.246094 124.308593-124.308594c20.363282 20.789063 36.699219 50.699219 39.242188 87.1875zm0 0" fill="#efe2dd"/><path d="m160.074219 497.476562c-36.0625 24.183594-89.304688 16.757813-126.003907-19.941406-40.941406-40.941406-45.609374-102.882812-10.609374-137.886718 35.003906-35 96.945312-30.332032 137.886718 10.609374l-31.820312 74.246094zm0 0" fill="#efe2dd"/><path d="m244.5 351.957031c-29.242188-29.242187-29.242188-76.824219 0-106.066406s76.824219-29.242187 106.066406 0c29.242188 29.242187 29.242188 76.824219 0 106.066406-29.242187 29.238281-76.824218 29.238281-106.066406 0zm0 0" fill="#ffb64c"/><path d="m329.355469 267.105469c-17.546875-17.546875-46.09375-17.546875-63.640625 0-17.546875 17.542969-17.546875 46.089843 0 63.640625 17.542968 17.542968 46.09375 17.542968 63.640625 0 17.542969-17.550782 17.542969-46.097656 0-63.640625zm0 0" fill="#ff9c5e"/><path d="m297.535156 277.707031 21.210938 21.210938-21.210938 21.214843-21.214844-21.214843zm0 0" fill="#ffb64c"/><path d="m129.527344 424.503906 30.546875 72.972656c-36.0625 24.183594-89.304688 16.757813-126.003907-19.941406l127.277344-127.277344zm0 0" fill="#e1d3ce"/><path d="m161.347656 350.257812-74.246094 74.246094 72.996094 72.992188c4.152344-2.78125 8.226563-5.722656 11.855469-9.355469 35.09375-35.089844 30.328125-96.949219-10.605469-137.882813zm0 0" fill="#cdbfba"/></svg>