<svg id="Layer_1_1_" enable-background="new 0 0 64 64" height="512" viewBox="0 0 64 64" width="512" xmlns="http://www.w3.org/2000/svg"><circle cx="32" cy="32" fill="#d5dbdb" r="29"/><path d="m53 22h2v15h-2z" fill="#2d366d"/><path d="m54 32 2 7-2 2-2-2z" fill="#f82f45"/><path d="m48 24.43v17l-16 5.57-16-5.57v-17z" fill="#d22435"/><path d="m55 22-7 2.43-16 5.57-16-5.57-7-2.43 23-8z" fill="#f82f45"/><g fill="#2d366d"><path d="m59.695 27.832 1.978-.299c-.205-1.359-.507-2.717-.896-4.035l-1.918.566c.363 1.231.644 2.498.836 3.768z"/><path d="m59.336 19.623c-.567-1.257-1.226-2.481-1.957-3.643l-1.692 1.066c.683 1.083 1.297 2.227 1.827 3.398z"/><path d="m53.409 13.933 1.529-1.289c-.885-1.05-1.854-2.049-2.881-2.969l-1.335 1.488c.958.858 1.861 1.79 2.687 2.77z"/><path d="m62.007 31.654-2 .025.002.342c0 .591-.019 1.182-.056 1.774-.274 4.319-1.52 8.424-3.7 12.199-7.72 13.37-24.877 17.969-38.249 10.249s-17.967-24.878-10.248-38.248c3.739-6.477 9.777-11.11 17.001-13.046 6.403-1.716 13.056-1.125 18.996 1.634l-2.972.796.518 1.932 6.43-1.723-1.723-6.431-1.932.518.876 3.265c-6.454-3.1-13.72-3.794-20.71-1.922-7.74 2.074-14.209 7.038-18.216 13.977-8.271 14.325-3.345 32.71 10.981 40.981 4.713 2.721 9.862 4.013 14.949 4.013 10.375 0 20.482-5.382 26.032-14.994 2.335-4.045 3.669-8.443 3.963-13.072v-.001c.04-.634.06-1.269.06-1.904z"/></g><path d="m32 41.414-3.707-3.707 1.414-1.414 2.293 2.293 6.293-6.293 1.414 1.414z" fill="#d5dbdb"/><path d="m31 21h2v2h-2z" fill="#2d366d"/></svg>