<svg id="Capa_1" enable-background="new 0 0 510 510" height="512" viewBox="0 0 510 510" width="512" xmlns="http://www.w3.org/2000/svg" xmlns:xlink="http://www.w3.org/1999/xlink"><linearGradient id="lg1"><stop offset="0" stop-color="#ff7044"/><stop offset="1" stop-color="#f92814"/></linearGradient><linearGradient id="SVGID_1_" gradientUnits="userSpaceOnUse" x1="51.201" x2="51.201" xlink:href="#lg1" y1="260.932" y2="227.533"/><linearGradient id="SVGID_2_" gradientUnits="userSpaceOnUse" x1="41.285" x2="95.342" xlink:href="#lg1" y1="354.926" y2="353.683"/><linearGradient id="SVGID_3_" gradientUnits="userSpaceOnUse" x1="61.985" x2="25.569" y1="352.025" y2="368.747"><stop offset="0" stop-color="#ff7044" stop-opacity="0"/><stop offset=".2503" stop-color="#ff813a" stop-opacity=".25"/><stop offset=".7194" stop-color="#ff9a2b" stop-opacity=".719"/><stop offset="1" stop-color="#ffa425"/></linearGradient><linearGradient id="SVGID_4_" gradientUnits="userSpaceOnUse" x1="40.378" x2="103.867" y1="359.793" y2="335.121"><stop offset="0" stop-color="#f92814" stop-opacity="0"/><stop offset="1" stop-color="#c1272d"/></linearGradient><linearGradient id="SVGID_5_" gradientUnits="userSpaceOnUse" x1="44.56" x2="69.253" y1="295.337" y2="320.029"><stop offset="0" stop-color="#92f37f"/><stop offset="1" stop-color="#4ab272"/></linearGradient><linearGradient id="SVGID_6_" gradientUnits="userSpaceOnUse" x1="53.593" x2="36.34" y1="304.37" y2="287.117"><stop offset="0" stop-color="#92f37f" stop-opacity="0"/><stop offset="1" stop-color="#ffee83"/></linearGradient><linearGradient id="SVGID_7_" gradientUnits="userSpaceOnUse" x1="52.356" x2="78.561" y1="309.777" y2="261.038"><stop offset="0" stop-color="#4ab272" stop-opacity="0"/><stop offset="1" stop-color="#009245"/></linearGradient><linearGradient id="lg2"><stop offset="0" stop-color="#7e8595"/><stop offset="1" stop-color="#555a66"/></linearGradient><linearGradient id="SVGID_8_" gradientTransform="matrix(1 0 0 -1 0 400.63)" gradientUnits="userSpaceOnUse" x1="255" x2="255" xlink:href="#lg2" y1="150.637" y2="279.018"/><linearGradient id="SVGID_9_" gradientTransform="matrix(1 0 0 -1 0 400.63)" gradientUnits="userSpaceOnUse" x1="197.48" x2="319.297" xlink:href="#lg2" y1="113.021" y2="278.792"/><linearGradient id="lg3"><stop offset="0" stop-color="#bec3d2" stop-opacity="0"/><stop offset=".5577" stop-color="#d4d9e4" stop-opacity=".558"/><stop offset="1" stop-color="#e9edf5"/></linearGradient><linearGradient id="SVGID_10_" gradientTransform="matrix(1 0 0 -1 0 400.63)" gradientUnits="userSpaceOnUse" x1="254.53" x2="223.629" xlink:href="#lg3" y1="195.569" y2="-117.986"/><linearGradient id="SVGID_11_" gradientUnits="userSpaceOnUse" x1="156.08" x2="313.623" xlink:href="#lg2" y1="205.644" y2="291.073"/><linearGradient id="SVGID_12_" gradientUnits="userSpaceOnUse" x1="202.938" x2="-20.433" xlink:href="#lg3" y1="212.403" y2="69.652"/><linearGradient id="SVGID_13_" gradientUnits="userSpaceOnUse" x1="297.572" x2="197.72" xlink:href="#lg2" y1="202.319" y2="434.196"/><linearGradient id="SVGID_14_" gradientUnits="userSpaceOnUse" x1="255" x2="255" xlink:href="#lg2" y1="345.482" y2="282.24"/><path d="m51.201 302.47c-4.185 0-7.577-3.393-7.577-7.577v-93.909h15.154v93.909c0 4.184-3.392 7.577-7.577 7.577z" fill="url(#SVGID_1_)"/><path d="m71.28 393.736c0 10.816-39.168 10.816-39.168 0s8.768-86.223 19.584-86.223 19.584 75.407 19.584 86.223z" fill="url(#SVGID_2_)"/><path d="m71.274 393.731c0 3.61-4.381 6.02-10.222 7.219-5.759 1.185-12.936 1.185-18.709 0-.895-1.198-1.419-2.659-1.419-4.408 0-11.09 4.753-87.812 10.636-89.011.041-.014.096-.014.138-.014.041 0 .096 0 .138.014 10.759.633 19.438 75.426 19.438 86.2z" fill="url(#SVGID_3_)"/><path d="m64.813 393.731c0 5.152-5.952 7.853-12.206 8.101-.606.014-1.226.014-1.846 0-9.465-.166-18.654-2.866-18.654-8.101 0-10.76 8.679-85.429 19.425-86.201.055-.014.11-.014.165-.014s.11 0 .165.014c7.178 1.157 12.951 75.469 12.951 86.201z" fill="url(#SVGID_4_)"/><circle cx="51.694" cy="302.47" fill="url(#SVGID_5_)" r="19.065"/><circle cx="51.694" cy="302.47" fill="url(#SVGID_6_)" r="15.911"/><path d="m60.222 285.416c1.286 2.566 2.011 5.462 2.011 8.528 0 10.529-8.536 19.065-19.065 19.065-3.066 0-5.962-.725-8.528-2.011 3.13 6.247 9.591 10.537 17.054 10.537 10.529 0 19.065-8.536 19.065-19.065-.001-7.463-4.29-13.924-10.537-17.054z" fill="url(#SVGID_7_)"/><path d="m509.99 209.18c.051 2.022-.886 4.08-2.826 4.729l-231.021 77.311c-13.845 4.633-28.44 4.633-42.285 0l-231.022-77.311c-1.94-.649-2.878-2.707-2.827-4.729v-15.512c-.051-2.022.886-4.08 2.827-4.729l231.021-77.311c13.845-4.633 28.44-4.633 42.285 0l231.021 77.311c1.94.649 2.878 2.707 2.826 4.729v15.512z" fill="url(#SVGID_8_)"/><path d="m233.857 291.22-231.021-77.311c-3.781-1.266-3.781-7.883 0-9.148l231.021-77.311c13.845-4.633 28.44-4.633 42.285 0l231.021 77.311c3.781 1.265 3.781 7.883 0 9.148l-231.02 77.311c-13.845 4.633-28.441 4.633-42.286 0z" fill="url(#SVGID_9_)"/><path d="m236.096 273.51-206.557-69.124c-3.381-1.131-3.381-7.048 0-8.179l206.558-69.124c12.379-4.143 25.429-4.143 37.807 0l206.558 69.124c3.381 1.131 3.381 7.048 0 8.179l-206.558 69.124c-12.379 4.142-25.429 4.142-37.808 0z" fill="url(#SVGID_10_)"/><path d="m429.186 241.942v59.238c0 19.125-77.986 34.621-174.186 34.621s-174.186-15.496-174.186-34.621v-59.238c0-21.236 13.008-40.302 32.777-48.055 45.457-17.826 93.433-26.739 141.409-26.739s95.951 8.913 141.409 26.739c9.885 3.877 18.074 10.579 23.804 18.966 5.721 8.398 8.973 18.471 8.973 29.089z" fill="url(#SVGID_11_)"/><path d="m429.186 301.18v-59.238c0-10.618-3.252-20.691-8.972-29.089-5.731-8.388-13.92-15.09-23.804-18.966-45.457-17.826-93.433-26.739-141.409-26.739-35.561 0-71.119 4.91-105.654 14.703-17.507 10.147-28.591 28.963-28.591 49.629v65.841c0 19.194 70.681 35.098 163.12 38.004 82.454-2.734 145.31-16.976 145.31-34.145z" fill="url(#SVGID_12_)"/><path d="m429.186 301.18c0 19.125-77.986 34.621-174.186 34.621s-174.186-15.496-174.186-34.621 77.987-34.631 174.186-34.631 174.186 15.506 174.186 34.631z" fill="url(#SVGID_13_)"/><path d="m422.529 304.589c0 17.242-75.006 31.213-167.529 31.213s-167.529-13.971-167.529-31.213 75.006-31.222 167.529-31.222 167.529 13.98 167.529 31.222z" fill="url(#SVGID_14_)"/></svg>