<?xml version="1.0" encoding="iso-8859-1"?>
<!-- Generator: Adobe Illustrator 19.0.0, SVG Export Plug-In . SVG Version: 6.00 Build 0)  -->
<svg version="1.1" id="Layer_1" xmlns="http://www.w3.org/2000/svg" xmlns:xlink="http://www.w3.org/1999/xlink" x="0px" y="0px"
	 viewBox="0 0 491.519 491.519" style="enable-background:new 0 0 491.519 491.519;" xml:space="preserve">
<path style="fill:#64798A;" d="M245.746,126.657c-79.21,0-144.61,59.127-154.47,135.655c-1.505,11.671,4.922,22.906,15.726,27.568
	c47.044,20.302,92.356,36.776,133.625,44.3c3.054,0.557,6.179,0.546,9.234-0.017c42.473-7.832,87.659-23.175,134.868-44.116
	c10.681-4.738,16.996-15.888,15.521-27.479C390.502,185.916,325.044,126.657,245.746,126.657z"/>
<path style="fill:#2F4859;" d="M487.876,168.932L247.148,99.838c-0.907-0.26-1.869-0.26-2.776,0L3.644,168.932
	c-4.858,1.395-4.858,8.279,0,9.674l240.729,69.093c0.907,0.261,1.869,0.261,2.776,0l240.728-69.093
	C492.734,177.211,492.734,170.327,487.876,168.932z"/>
<path style="fill:#3A556A;" d="M487.876,163.095L247.148,94.001c-0.907-0.26-1.869-0.26-2.776,0L3.644,163.095
	c-4.858,1.394-4.858,8.278,0,9.673l240.729,69.094c0.907,0.26,1.869,0.26,2.776,0l240.728-69.094
	C492.734,171.373,492.734,164.489,487.876,163.095z"/>
<path style="fill:#FCD462;" d="M136.629,312.67c-4.939,0-8.937-3.997-8.937-8.937v-92.797c0-3.683,2.26-7,5.699-8.327
	l106.455-41.358c4.582-1.798,9.783,0.488,11.563,5.089c1.789,4.599-0.488,9.783-5.087,11.572l-100.756,39.142v86.679
	C145.566,308.672,141.569,312.67,136.629,312.67z"/>
<ellipse style="fill:#2F4859;" cx="245.76" cy="167.931" rx="23.03" ry="14.894"/>
<polygon style="fill:#FCD462;" points="169.502,397.714 103.752,397.714 122.511,295.115 150.743,295.115 "/>
<circle style="fill:#F6C358;" cx="136.627" cy="289.843" r="23.404"/>
<g>
</g>
<g>
</g>
<g>
</g>
<g>
</g>
<g>
</g>
<g>
</g>
<g>
</g>
<g>
</g>
<g>
</g>
<g>
</g>
<g>
</g>
<g>
</g>
<g>
</g>
<g>
</g>
<g>
</g>
</svg>
